name analog
datacolumns 19
datarows 22
range 0.217 0.2275
endheader
time	ground_force_vx	ground_force_vy	ground_force_vz	ground_force_px	ground_force_py	ground_force_pz	l_ground_force_vx	l_ground_force_vy	l_ground_force_vz	l_ground_force_px	l_ground_force_py	l_ground_force_pz	ground_torque_x	ground_torque_y	ground_torque_z	l_ground_torque_x	l_ground_torque_y	l_ground_torque_z
0.217	-0.0	-0.0	-0.0	-1.3975783586502075	-1.1289321184158323	-759.218994140625	-0.2067733705043792	-6.8153815269470215	-60.46099090576172	-0.0	-0.0	-0.0	-0.0	-0.0	-0.0	22029.3125	1322.6370849609375	-629.73046875
0.2175	-0.0	-0.0	-0.0	-1.6054749488830566	-1.17360258102417	-759.5128173828125	-0.324938952922821	-7.110145092010498	-61.5683822631836	-0.0	-0.0	-0.0	-0.0	-0.0	-0.0	22013.6171875	1238.568603515625	-565.6538696289062
0.218	-0.0	-0.0	-0.0	-0.8632563948631287	-1.3817874193191528	-759.5145263671875	-0.5175268650054932	-6.889091491699219	-58.36632537841797	-0.0	-0.0	-0.0	-0.0	-0.0	-0.0	21801.037109375	1285.32568359375	-629.9909057617188
0.2185	-0.0	-0.0	-0.0	-1.1297492980957031	-1.0261259078979492	-760.3341064453125	-0.7097524404525757	-6.800769805908203	-58.83191680908203	-0.0	-0.0	-0.0	-0.0	-0.0	-0.0	21345.28125	1352.4542236328125	-674.6244506835938
0.219	-0.0	-0.0	-0.0	-1.1747578382492063	-0.9513347148895264	-760.9280395507812	-0.4879582226276397	-6.580014228820801	-58.133934020996094	-0.0	-0.0	-0.0	-0.0	-0.0	-0.0	20947.61328125	1393.6234130859375	-600.2485961914062
0.2195	-0.0	-0.0	-0.0	-1.100637674331665	-1.1887797117233276	-760.988037109375	-0.709686279296875	-6.462254047393799	-57.37764739990234	-0.0	-0.0	-0.0	-0.0	-0.0	-0.0	20852.41796875	1458.6231689453125	-699.2001342773438
0.22	-0.0	-0.0	-0.0	-1.366999268531799	-1.6030056476593018	-761.3961791992188	-0.3994594812393188	-6.874284744262695	-56.27194213867188	-0.0	-0.0	-0.0	-0.0	-0.0	-0.0	20610.3203125	1349.670654296875	-634.9212036132812
0.2205	-0.0	-0.0	-0.0	-0.9239238500595092	-1.368746280670166	-762.9822387695312	-0.709686279296875	-6.771820068359375	-54.0627326965332	-0.0	-0.0	-0.0	-0.0	-0.0	-0.0	20140.935546875	1303.1590576171875	-615.1991577148438
0.221	-0.0	-0.0	-0.0	-1.2926942110061646	-0.7870327234268188	-762.4623413085938	-0.7694224119186401	-6.520936012268066	-55.80196380615234	-0.0	-0.0	-0.0	-0.0	-0.0	-0.0	19755.072265625	1164.4515380859375	-590.4905395507812
0.2215	-0.0	-0.0	-0.0	-1.4121772050857544	-1.0847420692443848	-762.2224731445312	-0.7983970642089844	-6.4325785636901855	-54.05957794189453	-0.0	-0.0	-0.0	-0.0	-0.0	-0.0	19231.3125	1259.1888427734375	-703.75537109375
0.222	-0.0	-0.0	-0.0	-0.7419851422309875	-1.1152058839797974	-762.9892578125	-0.6209754943847656	-6.785829067230225	-52.31890487670898	-0.0	-0.0	-0.0	-0.0	-0.0	-0.0	19085.111328125	1220.24951171875	-570.3558959960938
0.2225	-0.0	-0.0	-0.0	-0.5962756872177124	-1.2759982347488403	-765.9868774414062	-0.6209754943847656	-6.432517051696777	-52.60356521606445	-0.0	-0.0	-0.0	-0.0	-0.0	-0.0	18570.19140625	1152.3258056640625	-550.6124267578125
0.223	-0.0	-0.0	-0.0	-0.7289736866950989	-1.324204921722412	-765.9866943359375	-0.575770378112793	-6.844084739685059	-50.626983642578125	-0.0	-0.0	-0.0	-0.0	-0.0	-0.0	18205.4453125	1174.1094970703125	-531.0618896484375
0.2235	-0.0	-0.0	-0.0	-0.4739589691162109	-1.2505687475204468	-770.0319213867188	-0.3850523233413696	-6.169388294219971	-48.361270904541016	-0.0	-0.0	-0.0	-0.0	-0.0	-0.0	17794.25	1232.41845703125	-402.6258850097656
0.224	-0.0	-0.0	-0.0	-0.3136869668960571	-1.2756038904190063	-770.4677124023438	-0.28126260638237	-6.447483062744141	-47.31411743164063	-0.0	-0.0	-0.0	-0.0	-0.0	-0.0	17422.59375	1256.4107666015625	-422.1936645507813
0.2245	-0.0	-0.0	-0.0	-0.1938092708587646	-1.7826080322265625	-773.34228515625	0.1774215698242187	-6.298761367797852	-47.075775146484375	-0.0	-0.0	-0.0	-0.0	-0.0	-0.0	16799.17578125	1030.586669921875	-322.70660400390625
0.225	-0.0	-0.0	-0.0	-0.2401197254657745	-1.7671972513198853	-775.4609985351562	0.2230296730995178	-6.154740333557129	-46.01831817626953	-0.0	-0.0	-0.0	-0.0	-0.0	-0.0	16294.5078125	1302.167236328125	-170.0594482421875
0.2255	-0.0	-0.0	-0.0	-0.4340758323669433	-1.8443396091461184	-776.8123779296875	0.8844707012176514	-5.811448097229004	-43.87326049804688	-0.0	-0.0	-0.0	-0.0	-0.0	-0.0	15855.2509765625	1117.1348876953125	-90.72102355957033
0.226	-0.0	-0.0	-0.0	-0.8611387014389038	-1.991807460784912	-776.995849609375	0.2937996089458465	-5.698169708251953	-43.3436279296875	-0.0	-0.0	-0.0	-0.0	-0.0	-0.0	15233.8408203125	1006.1756591796876	-134.24929809570312
0.2265	-0.0	-0.0	-0.0	-0.6865520477294922	-1.3873767852783203	-780.4662475585938	0.3395460247993469	-5.153117656707764	-39.86349105834961	-0.0	-0.0	-0.0	-0.0	-0.0	-0.0	14406.8154296875	903.4986572265624	-90.05952453613281
0.227	-0.0	-0.0	-0.0	-0.9231993556022644	-0.9845030307769777	-779.8212890625	0.6790373921394348	-4.8456573486328125	-37.057647705078125	-0.0	-0.0	-0.0	-0.0	-0.0	-0.0	13618.359375	803.1995239257812	58.5802116394043
0.2275	-0.0	-0.0	-0.0	-1.1866204738616943	-0.8333089351654053	-780.5894165039062	0.6516931056976318	-4.473823070526123	-35.203861236572266	-0.0	-0.0	-0.0	-0.0	-0.0	-0.0	12519.8828125	578.5993041992188	88.31925964355469
